<?xml version="1.0" standalone="no"?>
<!DOCTYPE svg PUBLIC "-//W3C//DTD SVG 20010904//EN"
 "http://www.w3.org/TR/2001/REC-SVG-20010904/DTD/svg10.dtd">
<svg version="1.0" xmlns="http://www.w3.org/2000/svg"
 width="376.000000pt" height="240.000000pt" viewBox="0 0 376.000000 240.000000"
 preserveAspectRatio="xMidYMid meet">

<g transform="translate(0.000000,240.000000) scale(0.100000,-0.100000)"
fill="#000000" stroke="none">
<path d="M224 2048 c19 -35 154 -284 300 -555 l266 -492 0 -326 0 -325 175 0
175 0 0 330 0 329 295 545 c162 300 295 547 295 551 0 3 -84 5 -187 5 l-188 0
-192 -391 c-132 -269 -196 -388 -204 -383 -7 4 -97 180 -201 391 l-188 383
-191 0 -190 0 35 -62z"/>
<path d="M1792 2098 c3 -7 137 -403 299 -881 l294 -867 214 2 213 3 304 875
c167 481 304 876 304 878 0 1 -82 2 -183 2 l-183 0 -218 -697 c-119 -384 -221
-702 -226 -707 -6 -6 -13 -6 -18 -1 -5 6 -105 324 -222 708 l-214 697 -184 0
c-143 0 -183 -3 -180 -12z"/>
</g>
</svg>
